P1
# Pixel art: https://www.instagram.com/p/BC6rIUzyphy/
# Aquarela: https://www.instagram.com/p/BA_UbOQypkI/
59 54
0000000000000011111111110000000000000000000000000000000000000000000000
0110000000000110000000000000000000000000000000000000000000110000000000
0000110000000000000000000000000000000000000000100000000000000000010000
0000000000000000000000000000000000100000000000000000000100000000000000
0000000000000000000000100000000000000000000001000000000000000000000000
0000000000100000000000000000000000010000000001100000000000000000000010
0000000000000000000000001000000001001100000000000000000001000000000000
0000000000000100000001000101000000000000000001000000000000000000000000
0010000001100100110000000000000000100000000000000000000000000100000111
1010100100000000000000010000000000000000011110000011000100011001001000
0000000000001000001111000000011111100010010010001011001010000000000000
0100001111110000011000001001001011011001100101000000000000000100110000
1100001011100000100101101000010100100000000000000010000011001000101000
1000010110110010000110100000000000000011000010010100010000000000010101
1000100001010000000000000010010000000010001000110000001010110000100001
0000000000000001011000011000111000000000000101111100000000100000000000
0000101100000000000000000000000011111110000000100000000000000001011000
0000000000000000000001100111100000010000000000000000101100000000010001
0000000000110110110000010000000000000000100110000000001111110000000001
1011001101110000000000000000010001100000001111111000000000110111001111
1000000000000000000111111000000100000100000000111000110011110000000000
0000000000111110000001000110000000101101101101111000000000000000000011
1111100000011100100001100011110011011000000000000000000001111111110000
0000001111111101111100111000111111111111100001111001111110000000011110
1001110111001000011111101111110000110110111111111111111010011011110111
1000001110110110111000111011101100111111111001001111011101100000011100
0000011100011101001111011111111001001100100111011000001111111111111001
1100110111100110000000100111010011111000000111000000011100111001110011
1001100000100111111000111100000011011111111110111100100101110011000001
0011100100001100000001101000001111011100011010011100110001001111101000
0010000000110111011111101110001110001110001101000110111100000100000001
1000000001110111000100100011100001000111010010001010000000110111011111
1011110111010001111001000111001101000111000000010111101111110011111111
1000011100000111000111100011100000001111111111111001111111001111111000
0111000100101001110000000111111011111100011111110100000000111111111101
0110110100000011111101111110000111111111111111111111111111101101101000
0001110000000111000001111100111111110001000100110110110100000011111101
1111100000110111011100111101001111011011001110000001111100011111000011
1001111111001111001111111101100010000000111101010111100001100010110011
1000001100100110111010000000011101101101110000110001011101111111111101
0011011111000000001101110111011000011100101011100100100111000111111100
0000000111100000111100000111110110011011011010000001111100000000001111
1101111110000011111111000110110110000000111100000000000111111011111100
0000111111100000000000000000001100000000000011111111111110000000011110
0000000000000000000000000000000001111111111110000000000000000000000000
000000000000000000000000000000000000