P1
# Kanjis 1-10 + assinatura do autor.
121 41
1111111111111111111111111111111111111111111111111111111111111111111111
1111111111111111111111111111111111111111111111111111000000000000000000
0100000000000000000001000000000000000000010000000000000000000100000000
0000000000010000000000000000000110000000000000000000100000000000000000
0010000000000000000000100000000000000000001000000000000000000010000000
0000000000001100000000000000000001000000000000000000010000000000000000
0001001111111111111110010011111111111111100100000000001000000001100000
0000000000000010000000000000000000100000000000000000001001111111111111
1100100111111111111111001000000000010000000011000000000000000000010000
0000000000000001000011111111111100010011101100110011100100111111111111
1110010000001000100100000110000000000000000000100000000000000000001000
0111111111111000100111011001100111001000000011100000000010000001111111
1000001100000000000000000001000001111111110000010000000000000000000100
1110110011001110010000000111000000000100000000000000000001100000000000
0000000010000011111111100000100000000000000000001001110110011001110010
0001111111111110001000000111111110000011000001111111110000010000000000
0000000001000000000000000000010011100100110111100100001111111111110001
0000010000000000000110000011111111100000100000000000000000001000001111
1111100000100111111001101111001000000110000110000010000010000000000000
1100000111111111000001000000000000000000010000011111111100000100111110
0001111110010000001100001100000100000101111110000001100000000000000000
0010000111111111111000100000000000000000001001111100001111110010000001
1000011000001000001000010000000011000000000000000000010000111111111111
0001000000000000000000010011100000000011100100000110000110000001000001
1111111100000110000000000000000000100000000000000000001000011111111111
1000100111111111111111001000001100001100000010000010000100000000110000
0000000000000001000000000000000000010000111111111111000100111111111111
1110010011111111111111100100001000001000000001100000000000000000001000
0000000000000000100001111111111110001001110000000001110010011111111111
1111001000010000010000000011000000000000000000010000000000000000000100
0000000000000000010000000000000000000100111111111111111001000000000000
0000000110000000000000000000100000000000000000001000000000000000000010
0000000000000000001000000000000000000010000000000000000000110000000000
0000000001000000000000000000010000000000000000000100000000000000000001
0000000000000000000100000000000000000001111111111111111111111111111111
1111111111111111111111111111111111111111111111111111111111111111111111
1111111111111111111111000000000000000000010000000000000000000100000000
0000000000010000000000000000000100000000000000000001000000000000000000
0110000000000000000000100000000000000000001000000000000000000010000000
0000000000001000000000000000000010000000000000000000110000000001100000
0001000000111000000000010000000000000000000100000011100000000001000000
0001100000000100000000001000000001100000000011000000001000000111000000
0000100000011101100000001000000111000000000010000000001100000000100000
0000010000000011000000000110000000010000001110000111000100000011101100
0000010001111111111000000100000000011000000001000000000010000000011000
1111111111111100100000011100111110001000000111011000000010001111111111
0000001000000000110000000010000001111111110000110001111111111111100100
0000111111100000010000001110110000000100011111111110000001000000000110
0000000100000000001000000001100000000000000000001000011111110000000010
0000011101100000001000000111001100000010001111111111111100100000000011
1000000011000000111001100000010000111110000000000100000011101100000001
0000001110011000000100011111111111111001000000011010100000011000000111
0011000000100001111100000000001000000111011000000010000001110011000000
1000000000110000000010000000110101000000110000001110011000000100000011
1000000000010000001110110000000100000111100110000001000000000110000000
0100000010001001100001100000110000011100001000000111000000000010000011
1101110000001000001111001100000010000000001100000000100000100001000010
0011000001100000111000010000001110000001000100000110000110000001000001
1000011001100100000000011000000001000000011111100000011000011000000011
1000100000011110001110001000011100001111000010000111000011111100100000
0000110000000010000000000100000000110001100000000001100100000011111111
1000010000111000011110000100011100000111110001000000000110000000010000
0000001000000001100010000000000001001000000111111111000010001110000001
1110001000110000000111100010000000001100000000100000000001000000001100
0100000000000010010000000111111000000100011000000001110001000000000000
0000000100000000011000000001000000000000000000011000000000000000000010
0000000000000000001000000000000000000010000000000000000000100000000000
0000000010000000000000000000110000000000000000000100000000000000000001
0000000000000000000100000000000000000001000000000000000000010000000000
0000000001111111111111111111111111111111111111111111111111111111111111
1111111111111111111111111111111111111111111111111111111111111